<?xml version="1.0" encoding="UTF-8" standalone="no"?>
<!DOCTYPE svg PUBLIC "-//W3C//DTD SVG 1.1//EN" "http://www.w3.org/Graphics/SVG/1.1/DTD/svg11.dtd">
<!-- Generated by graphviz version 2.40.1 (20161225.0304)
 -->
<!-- Title: %0 Pages: 1 -->
<svg xmlns="http://www.w3.org/2000/svg" xmlns:xlink="http://www.w3.org/1999/xlink" width="5497pt" height="3555pt" viewBox="0.00 0.00 5496.56 3554.84">
  <g id="graph0" class="graph" transform="scale(1 1) rotate(0) translate(4 3550.8438)">
    <title>%0</title>
    <g id="a_graph0">
      <a xlink:title=" ">
        <polygon fill="#ffffff" stroke="transparent" points="-4,4 -4,-3550.8438 5492.56,-3550.8438 5492.56,4 -4,4"/>
      </a>
    </g>
    <!-- 1 -->
    <g id="node1" class="node">
      <title>1</title>
      <path fill="#fcfdbf" fill-opacity="0.949020" stroke="#569ea1" stroke-width="14" d="M2426.5775,-2922.8438C2426.5775,-2922.8438 1444.9525,-2922.8438 1444.9525,-2922.8438 1438.9525,-2922.8438 1432.9525,-2916.8438 1432.9525,-2910.8438 1432.9525,-2910.8438 1432.9525,-2654.8438 1432.9525,-2654.8438 1432.9525,-2648.8438 1438.9525,-2642.8438 1444.9525,-2642.8438 1444.9525,-2642.8438 2426.5775,-2642.8438 2426.5775,-2642.8438 2432.5775,-2642.8438 2438.5775,-2648.8438 2438.5775,-2654.8438 2438.5775,-2654.8438 2438.5775,-2910.8438 2438.5775,-2910.8438 2438.5775,-2916.8438 2432.5775,-2922.8438 2426.5775,-2922.8438"/>
      <text text-anchor="middle" x="1935.765" y="-2745.3438" font-family="Helvetica,sans-Serif" font-size="125.00" fill="#000000">A need to travel</text>
    </g>
    <!-- 2 -->
    <g id="node2" class="node">
      <title>2</title>
      <path fill="#febd83" fill-opacity="0.949020" stroke="#fff2ea" stroke-width="14" d="M1034.9625,-2228.8438C1034.9625,-2228.8438 12.0125,-2228.8438 12.0125,-2228.8438 6.0125,-2228.8438 .0125,-2222.8438 .0125,-2216.8438 .0125,-2216.8438 .0125,-1810.8438 .0125,-1810.8438 .0125,-1804.8438 6.0125,-1798.8438 12.0125,-1798.8438 12.0125,-1798.8438 1034.9625,-1798.8438 1034.9625,-1798.8438 1040.9625,-1798.8438 1046.9625,-1804.8438 1046.9625,-1810.8438 1046.9625,-1810.8438 1046.9625,-2216.8438 1046.9625,-2216.8438 1046.9625,-2222.8438 1040.9625,-2228.8438 1034.9625,-2228.8438"/>
      <text text-anchor="middle" x="523.4875" y="-2051.3438" font-family="Helvetica,sans-Serif" font-size="125.00" fill="#000000">Access to health</text>
      <text text-anchor="middle" x="523.4875" y="-1901.3438" font-family="Helvetica,sans-Serif" font-size="125.00" fill="#000000">services</text>
    </g>
    <!-- 3 -->
    <g id="node3" class="node">
      <title>3</title>
      <path fill="#f5b890" fill-opacity="0.949020" stroke="#509b9e" stroke-width="14" d="M2541.1651,-715.8438C2541.1651,-715.8438 1330.3649,-715.8438 1330.3649,-715.8438 1324.3649,-715.8438 1318.3649,-709.8438 1318.3649,-703.8438 1318.3649,-703.8438 1318.3649,-297.8438 1318.3649,-297.8438 1318.3649,-291.8438 1324.3649,-285.8438 1330.3649,-285.8438 1330.3649,-285.8438 2541.1651,-285.8438 2541.1651,-285.8438 2547.1651,-285.8438 2553.1651,-291.8438 2553.1651,-297.8438 2553.1651,-297.8438 2553.1651,-703.8438 2553.1651,-703.8438 2553.1651,-709.8438 2547.1651,-715.8438 2541.1651,-715.8438"/>
      <text text-anchor="middle" x="1935.765" y="-538.3438" font-family="Helvetica,sans-Serif" font-size="125.00" fill="#000000">Access to local</text>
      <text text-anchor="middle" x="1935.765" y="-388.3438" font-family="Helvetica,sans-Serif" font-size="125.00" fill="#000000">natural environment</text>
    </g>
    <!-- 4 -->
    <g id="node4" class="node">
      <title>4</title>
      <path fill="#fdf4b6" fill-opacity="0.949020" stroke="#d3e5e5" stroke-width="14" d="M3970.7826,-1216.8438C3970.7826,-1216.8438 2891.9324,-1216.8438 2891.9324,-1216.8438 2885.9324,-1216.8438 2879.9324,-1210.8438 2879.9324,-1204.8438 2879.9324,-1204.8438 2879.9324,-798.8438 2879.9324,-798.8438 2879.9324,-792.8438 2885.9324,-786.8438 2891.9324,-786.8438 2891.9324,-786.8438 3970.7826,-786.8438 3970.7826,-786.8438 3976.7826,-786.8438 3982.7826,-792.8438 3982.7826,-798.8438 3982.7826,-798.8438 3982.7826,-1204.8438 3982.7826,-1204.8438 3982.7826,-1210.8438 3976.7826,-1216.8438 3970.7826,-1216.8438"/>
      <text text-anchor="middle" x="3431.3575" y="-1039.3438" font-family="Helvetica,sans-Serif" font-size="125.00" fill="#000000">Contentment with</text>
      <text text-anchor="middle" x="3431.3575" y="-889.3438" font-family="Helvetica,sans-Serif" font-size="125.00" fill="#000000">living in this area</text>
    </g>
    <!-- 5 -->
    <g id="node5" class="node">
      <title>5</title>
      <path fill="#beaed4" fill-opacity="0.949020" stroke="#bcd7d8" stroke-width="14" d="M5476.7601,-2008.8438C5476.7601,-2008.8438 4265.9599,-2008.8438 4265.9599,-2008.8438 4259.9599,-2008.8438 4253.9599,-2002.8438 4253.9599,-1996.8438 4253.9599,-1996.8438 4253.9599,-1740.8438 4253.9599,-1740.8438 4253.9599,-1734.8438 4259.9599,-1728.8438 4265.9599,-1728.8438 4265.9599,-1728.8438 5476.7601,-1728.8438 5476.7601,-1728.8438 5482.7601,-1728.8438 5488.7601,-1734.8438 5488.7601,-1740.8438 5488.7601,-1740.8438 5488.7601,-1996.8438 5488.7601,-1996.8438 5488.7601,-2002.8438 5482.7601,-2008.8438 5476.7601,-2008.8438"/>
      <text text-anchor="middle" x="4871.36" y="-1831.3438" font-family="Helvetica,sans-Serif" font-size="125.00" fill="#000000">Impact on wellbeing</text>
    </g>
    <!-- 1&#45;&gt;4 -->
    <g id="edge1" class="edge">
      <title>1-&gt;4</title>
      <g id="a_edge1">
        <a xlink:title="A need to travel / Contentment with living in this area">
          <path fill="none" stroke="#058488" stroke-width="12.313" d="M2426.4697,-2642.8127C2550.3483,-2589.7798 2675.4735,-2518.7156 2772.145,-2424.8438 2886.6911,-2313.6149 2983.35,-2178.6754 3064.3058,-2036.7246"/>
          <path fill="none" stroke="#f26d04" stroke-width="12.313" d="M3064.3058,-2036.7246C3217.5975,-1767.9375 3314.5873,-1474.0117 3370.1046,-1268.3199"/>
          <polygon fill="#f26d04" stroke="#f26d04" stroke-width="12.313" points="3383.6242,-1216.8631 3393.2391,-1274.278 3382.35,-1243.9727 3375.605,-1269.6449 3370.1341,-1268.2075 3364.6633,-1266.7701 3371.4083,-1241.0979 3347.0292,-1262.1369 3383.6242,-1216.8631 3383.6242,-1216.8631"/>
        </a>
      </g>
      <text text-anchor="middle" x="2716.555" y="-2532.8438" font-family="Helvetica,sans-Serif" font-size="100.00" fill="#000000">4</text>
    </g>
    <!-- 1&#45;&gt;5 -->
    <g id="edge2" class="edge">
      <title>1-&gt;5</title>
      <g id="a_edge2">
        <a xlink:title="A need to travel / Impact on wellbeing">
          <path fill="none" stroke="#058488" stroke-width="6.6783" d="M2150.7543,-2922.9448C2291.0257,-3008.7611 2480.891,-3114.6561 2660.965,-3181.8438 3112.9203,-3350.4735 3421.8218,-3492.3702 3756.8406,-3395.9657"/>
          <path fill="none" stroke="#058488" stroke-width="6.6783" d="M3756.8406,-3395.9657C3880.251,-3360.4533 4007.2054,-3292.6044 4146.16,-3181.8438 4521.4576,-2882.6942 4732.2476,-2333.7606 4820.8831,-2049.7393"/>
          <polygon fill="#058488" stroke="#058488" stroke-width="6.6783" points="4833.3264,-2008.9902 4839.2084,-2055.2465 4829.8324,-2030.1534 4823.6231,-2050.4873 4820.9078,-2049.6581 4818.1924,-2048.829 4824.4017,-2028.495 4802.6072,-2044.0698 4833.3264,-2008.9902 4833.3264,-2008.9902"/>
        </a>
      </g>
      <text text-anchor="middle" x="3431.3575" y="-3456.8438" font-family="Helvetica,sans-Serif" font-size="100.00" fill="#000000">1</text>
    </g>
    <!-- 1&#45;&gt;5 -->
    <g id="edge3" class="edge">
      <title>1-&gt;5</title>
      <g id="a_edge3">
        <a xlink:title="A need to travel / Impact on wellbeing">
          <path fill="none" stroke="#058488" stroke-width="10.4348" d="M2416.4589,-2922.8719C2782.6656,-3006.3583 3299.1142,-3074.2714 3750.843,-2950.1181"/>
          <path fill="none" stroke="#f26d04" stroke-width="10.4348" d="M3750.843,-2950.1181C3890.9836,-2911.6017 4024.8954,-2854.6002 4146.16,-2773.8438 4426.598,-2587.0854 4650.2846,-2257.771 4771.58,-2052.0819"/>
          <polygon fill="#f26d04" stroke="#f26d04" stroke-width="10.4348" points="4796.6085,-2008.9064 4791.0472,-2062.9737 4788.2608,-2032.7129 4775.8318,-2054.1535 4771.7506,-2051.7877 4767.6693,-2049.4218 4780.0983,-2027.9812 4752.454,-2040.6016 4796.6085,-2008.9064 4796.6085,-2008.9064"/>
        </a>
      </g>
      <text text-anchor="middle" x="3431.3575" y="-3047.8438" font-family="Helvetica,sans-Serif" font-size="100.00" fill="#000000">3</text>
    </g>
    <!-- 1&#45;&gt;5 -->
    <g id="edge4" class="edge">
      <title>1-&gt;5</title>
      <g id="a_edge4">
        <a xlink:title="A need to travel / Impact on wellbeing">
          <path fill="none" stroke="#f26d04" stroke-width="8.5565" d="M2438.485,-2727.3706C2821.9717,-2681.5823 3348.4446,-2610.9315 3735.6926,-2528.7321"/>
          <path fill="none" stroke="#058488" stroke-width="8.5565" d="M3735.6926,-2528.7321C3908.6853,-2492.0117 4053.894,-2452.9866 4146.16,-2412.8438 4352.7742,-2322.9507 4555.0964,-2163.4699 4693.3108,-2040.3455"/>
          <polygon fill="#058488" stroke="#058488" stroke-width="8.5565" points="4727.9083,-2009.0883 4707.6331,-2055.3293 4713.3586,-2027.3252 4696.276,-2042.7585 4693.7431,-2039.9549 4691.2103,-2037.1514 4708.2928,-2021.7181 4679.8531,-2024.5806 4727.9083,-2009.0883 4727.9083,-2009.0883"/>
        </a>
      </g>
      <text text-anchor="middle" x="3431.3575" y="-2696.8438" font-family="Helvetica,sans-Serif" font-size="100.00" fill="#000000">2</text>
    </g>
    <!-- 2&#45;&gt;1 -->
    <g id="edge5" class="edge">
      <title>2-&gt;1</title>
      <g id="a_edge5">
        <a xlink:title="Access to health services / A need to travel">
          <path fill="none" stroke="#058488" stroke-width="8.5565" d="M890.4944,-2229.0583C976.8299,-2278.6652 1068.8043,-2330.6903 1154.975,-2377.8438 1186.5521,-2395.1231 1218.9339,-2412.6541 1251.7045,-2430.2438"/>
          <path fill="none" stroke="#f26d04" stroke-width="8.5565" d="M1251.7045,-2430.2438C1375.36,-2496.6165 1504.5516,-2563.8266 1616.9335,-2621.5132"/>
          <polygon fill="#f26d04" stroke="#f26d04" stroke-width="8.5565" points="1658.2039,-2642.658 1607.7779,-2640.1031 1635.992,-2635.523 1615.5029,-2625.0255 1617.2257,-2621.6629 1618.9485,-2618.3003 1639.4376,-2628.7978 1626.6735,-2603.2227 1658.2039,-2642.658 1658.2039,-2642.658"/>
        </a>
      </g>
      <text text-anchor="middle" x="1182.77" y="-2429.8438" font-family="Helvetica,sans-Serif" font-size="100.00" fill="#000000">2</text>
    </g>
    <!-- 2&#45;&gt;1 -->
    <g id="edge6" class="edge">
      <title>2-&gt;1</title>
      <g id="a_edge6">
        <a xlink:title="Access to health services / A need to travel">
          <path fill="none" stroke="#f26d04" stroke-width="19.8261" d="M727.6599,-2228.8522C810.8003,-2308.6258 913.0919,-2398.0562 1022.4659,-2473.7831"/>
          <path fill="none" stroke="#058488" stroke-width="19.8261" d="M1022.4659,-2473.7831C1065.7749,-2503.7687 1110.1944,-2531.6057 1154.975,-2555.8438 1221.8653,-2592.0489 1295.1853,-2623.0694 1369.2657,-2649.4838"/>
          <polygon fill="#058488" stroke="#058488" stroke-width="19.8261" points="1432.9766,-2671.0615 1359.6559,-2678.144 1398.1451,-2669.2029 1366.3331,-2658.4288 1369.3527,-2649.5132 1372.3722,-2640.5976 1404.1842,-2651.3718 1379.0494,-2620.8824 1432.9766,-2671.0615 1432.9766,-2671.0615"/>
        </a>
      </g>
      <text text-anchor="middle" x="1182.77" y="-2605.8438" font-family="Helvetica,sans-Serif" font-size="100.00" fill="#000000">8</text>
    </g>
    <!-- 2&#45;&gt;4 -->
    <g id="edge7" class="edge">
      <title>2-&gt;4</title>
      <g id="a_edge7">
        <a xlink:title="Access to health services / Contentment with living in this area">
          <path fill="none" stroke="#f26d04" stroke-width="8.5565" d="M655.3642,-1798.637C792.3781,-1598.7863 1027.3844,-1315.8887 1318.565,-1204.8438 1417.4188,-1167.1448 1520.6744,-1135.3485 1626.1009,-1108.6051"/>
          <path fill="none" stroke="#f26d04" stroke-width="8.5565" d="M1626.1009,-1108.6051C2040.3027,-1003.5351 2488.0149,-976.4594 2833.9575,-975.8418"/>
          <polygon fill="#f26d04" stroke="#f26d04" stroke-width="8.5565" points="2880.0836,-975.9148 2834.0074,-996.5614 2857.0559,-979.6566 2834.0342,-979.6201 2834.0402,-975.8419 2834.0462,-972.0636 2857.0679,-972.1001 2834.073,-955.1223 2880.0836,-975.9148 2880.0836,-975.9148"/>
        </a>
      </g>
      <text text-anchor="middle" x="1935.765" y="-1234.8438" font-family="Helvetica,sans-Serif" font-size="100.00" fill="#000000">2</text>
    </g>
    <!-- 2&#45;&gt;5 -->
    <g id="edge8" class="edge">
      <title>2-&gt;5</title>
      <g id="a_edge8">
        <a xlink:title="Access to health services / Impact on wellbeing">
          <path fill="none" stroke="#058488" stroke-width="40.487" d="M1047.3074,-2110.4019C1083.6643,-2115.2097 1119.8158,-2119.4433 1154.975,-2122.8438 1859.5555,-2190.9883 2291.0708,-2254.2111 2737.9899,-2262.4131"/>
          <path fill="none" stroke="#058488" stroke-width="40.487" d="M2737.9899,-2262.4131C3130.4095,-2269.615 3534.7052,-2234.3969 4146.16,-2122.8438 4243.5089,-2105.0836 4345.3305,-2076.2897 4440.8595,-2044.3475"/>
          <polygon fill="#058488" stroke="#058488" stroke-width="40.487" points="4541.0532,-2009.0044 4457.027,-2089.1838 4497.6805,-2045.2399 4447.74,-2062.8563 4441.1722,-2044.2373 4434.6043,-2025.6182 4484.5449,-2008.0018 4425.3174,-1999.2908 4541.0532,-2009.0044 4541.0532,-2009.0044"/>
        </a>
      </g>
      <text text-anchor="middle" x="2716.555" y="-2291.8438" font-family="Helvetica,sans-Serif" font-size="100.00" fill="#000000">19</text>
    </g>
    <!-- 2&#45;&gt;5 -->
    <g id="edge9" class="edge">
      <title>2-&gt;5</title>
      <g id="a_edge9">
        <a xlink:title="Access to health services / Impact on wellbeing">
          <path fill="none" stroke="#058488" stroke-width="8.5565" d="M1047.1317,-1996.3804C1443.0057,-1983.1782 2016.2424,-1964.0609 2598.9336,-1944.6284"/>
          <path fill="none" stroke="#f26d04" stroke-width="8.5565" d="M2598.9336,-1944.6284C3181.6248,-1925.1959 3773.7705,-1905.448 4207.4627,-1890.9845"/>
          <polygon fill="#f26d04" stroke="#f26d04" stroke-width="8.5565" points="4253.726,-1889.4417 4208.3988,-1911.6845 4230.843,-1893.9852 4207.8341,-1894.7526 4207.7081,-1890.9764 4207.5822,-1887.2003 4230.5911,-1886.4329 4207.0175,-1870.2684 4253.726,-1889.4417 4253.726,-1889.4417"/>
        </a>
      </g>
      <text text-anchor="middle" x="2716.555" y="-1970.8438" font-family="Helvetica,sans-Serif" font-size="100.00" fill="#000000">2</text>
    </g>
    <!-- 2&#45;&gt;5 -->
    <g id="edge10" class="edge">
      <title>2-&gt;5</title>
      <g id="a_edge10">
        <a xlink:title="Access to health services / Impact on wellbeing">
          <path fill="none" stroke="#f26d04" stroke-width="6.6783" d="M1047.069,-1942.6545C1137.5389,-1931.127 1230.7223,-1919.741 1318.565,-1909.8438 1898.3835,-1844.516 2054.2169,-1812.7908 2614.5428,-1785.086"/>
          <path fill="none" stroke="#058488" stroke-width="6.6783" d="M2614.5428,-1785.086C2629.7148,-1784.3359 2645.1834,-1783.5887 2660.965,-1782.8438 3181.7896,-1758.2619 3771.89,-1783.9427 4211.2955,-1813.4871"/>
          <polygon fill="#058488" stroke="#058488" stroke-width="6.6783" points="4254.0113,-1816.4032 4210.2851,-1832.5973 4232.6065,-1817.7876 4211.395,-1816.3395 4211.5883,-1813.507 4211.7817,-1810.6745 4232.9932,-1812.1226 4212.8916,-1794.4166 4254.0113,-1816.4032 4254.0113,-1816.4032"/>
        </a>
      </g>
      <text text-anchor="middle" x="2716.555" y="-1812.8438" font-family="Helvetica,sans-Serif" font-size="100.00" fill="#000000">1</text>
    </g>
    <!-- 2&#45;&gt;5 -->
    <g id="edge11" class="edge">
      <title>2-&gt;5</title>
      <g id="a_edge11">
        <a xlink:title="Access to health services / Impact on wellbeing">
          <path fill="none" stroke="#f26d04" stroke-width="14.1913" d="M1047.1714,-1823.0751C1136.7912,-1795.6905 1229.6705,-1770.5181 1318.565,-1751.8438 1884.3173,-1632.9946 2252.4764,-1592.6482 2617.9345,-1599.0687"/>
          <path fill="none" stroke="#f26d04" stroke-width="14.1913" d="M2617.9345,-1599.0687C3000.979,-1605.7981 3381.0563,-1663.9037 3982.57,-1736.8438 4052.431,-1745.3152 4125.2699,-1754.9 4197.8678,-1764.9426"/>
          <polygon fill="#f26d04" stroke="#f26d04" stroke-width="14.1913" points="4253.9519,-1772.7953 4194.3577,-1790.1735 4225.0064,-1775.4024 4196.9755,-1771.4776 4197.8901,-1764.9456 4198.8047,-1758.4137 4226.8356,-1762.3386 4201.4224,-1739.7178 4253.9519,-1772.7953 4253.9519,-1772.7953"/>
        </a>
      </g>
      <text text-anchor="middle" x="2716.555" y="-1633.8438" font-family="Helvetica,sans-Serif" font-size="100.00" fill="#000000">5</text>
    </g>
    <!-- 3&#45;&gt;4 -->
    <g id="edge12" class="edge">
      <title>3-&gt;4</title>
      <g id="a_edge12">
        <a xlink:title="Access to local natural environment / Contentment with living in this area">
          <path fill="none" stroke="#058488" stroke-width="32.9739" d="M2553.0043,-542.4019C2627.9356,-556.412 2702.5356,-574.7925 2772.145,-598.8438 2786.9629,-603.9636 2801.8017,-609.456 2816.6288,-615.2761"/>
          <path fill="none" stroke="#058488" stroke-width="32.9739" d="M2816.6288,-615.2761C2901.0233,-648.4038 2985.0355,-692.1519 3062.6165,-738.2805"/>
          <polygon fill="#058488" stroke="#058488" stroke-width="32.9739" points="3140.6537,-786.7198 3040.8433,-773.4004 3093.2134,-776.089 3054.2044,-751.8753 3062.6357,-738.2923 3071.0669,-724.7094 3110.0759,-748.9231 3084.428,-703.1842 3140.6537,-786.7198 3140.6537,-786.7198"/>
        </a>
      </g>
      <text text-anchor="middle" x="2716.555" y="-628.8438" font-family="Helvetica,sans-Serif" font-size="100.00" fill="#000000">15</text>
    </g>
    <!-- 3&#45;&gt;4 -->
    <g id="edge13" class="edge">
      <title>3-&gt;4</title>
      <g id="a_edge13">
        <a xlink:title="Access to local natural environment / Contentment with living in this area">
          <path fill="none" stroke="#f26d04" stroke-width="6.6783" d="M2553.1948,-714.4875C2589.6377,-726.8502 2625.768,-739.0442 2660.965,-750.8438 2672.3701,-754.6673 2683.8728,-758.5154 2695.4539,-762.3822"/>
          <path fill="none" stroke="#f26d04" stroke-width="6.6783" d="M2695.4539,-762.3822C2742.5427,-778.1046 2790.9278,-794.1365 2839.315,-810.0804"/>
          <polygon fill="#f26d04" stroke="#f26d04" stroke-width="6.6783" points="2879.9597,-823.4529 2833.5878,-828.3399 2858.8765,-819.5051 2838.6807,-812.8605 2839.568,-810.1636 2840.4553,-807.4667 2860.6512,-814.1113 2845.5481,-791.9873 2879.9597,-823.4529 2879.9597,-823.4529"/>
        </a>
      </g>
      <text text-anchor="middle" x="2716.555" y="-815.8438" font-family="Helvetica,sans-Serif" font-size="100.00" fill="#000000">1</text>
    </g>
    <!-- 3&#45;&gt;5 -->
    <g id="edge14" class="edge">
      <title>3-&gt;5</title>
      <g id="a_edge14">
        <a xlink:title="Access to local natural environment / Impact on wellbeing">
          <path fill="none" stroke="#058488" stroke-width="48" d="M2336.7641,-285.77C2762.4384,-88.3832 3446.3666,138.8968 3982.57,-107.8438 4001.6281,-116.6136 4020.2831,-125.9721 4038.5433,-135.8861"/>
          <path fill="none" stroke="#058488" stroke-width="48" d="M4038.5433,-135.8861C4576.533,-427.9763 4771.8386,-1202.242 4838.8224,-1609.7331"/>
          <polygon fill="#058488" stroke="#058488" stroke-width="48" points="4856.4058,-1728.6261 4785.4306,-1617.8176 4824.3805,-1672.7098 4815.6024,-1613.3554 4838.8495,-1609.9173 4862.0967,-1606.4792 4870.8748,-1665.8336 4892.2685,-1602.017 4856.4058,-1728.6261 4856.4058,-1728.6261"/>
        </a>
      </g>
      <text text-anchor="middle" x="3431.3575" y="-137.8438" font-family="Helvetica,sans-Serif" font-size="100.00" fill="#000000">23</text>
    </g>
    <!-- 3&#45;&gt;5 -->
    <g id="edge15" class="edge">
      <title>3-&gt;5</title>
      <g id="a_edge15">
        <a xlink:title="Access to local natural environment / Impact on wellbeing">
          <path fill="none" stroke="#f26d04" stroke-width="6.6783" d="M2552.9973,-391.6737C2972.3807,-348.4091 3526.8593,-353.7197 3956.8988,-580.9321"/>
          <path fill="none" stroke="#f26d04" stroke-width="6.6783" d="M3956.8988,-580.9321C3965.5064,-585.48 3974.0642,-590.1167 3982.57,-594.8438 4420.5815,-838.2654 4690.9878,-1399.4956 4806.3388,-1688.9474"/>
          <polygon fill="#f26d04" stroke="#f26d04" stroke-width="6.6783" points="4821.9111,-1728.7684 4788.604,-1696.1359 4811.5237,-1710.0017 4803.7805,-1690.201 4806.4246,-1689.167 4809.0688,-1688.133 4816.812,-1707.9337 4824.2453,-1682.1981 4821.9111,-1728.7684 4821.9111,-1728.7684"/>
        </a>
      </g>
      <text text-anchor="middle" x="3431.3575" y="-624.8438" font-family="Helvetica,sans-Serif" font-size="100.00" fill="#000000">1</text>
    </g>
    <!-- 4&#45;&gt;5 -->
    <g id="edge16" class="edge">
      <title>4-&gt;5</title>
      <g id="a_edge16">
        <a xlink:title="Contentment with living in this area / Impact on wellbeing">
          <path fill="none" stroke="#058488" stroke-width="6.6783" d="M3982.9498,-1130.0404C4039.5945,-1151.525 4095.0456,-1176.3168 4146.16,-1204.8438 4233.91,-1253.8171 4319.6507,-1315.3785 4399.666,-1381.1491"/>
          <path fill="none" stroke="#058488" stroke-width="6.6783" d="M4399.666,-1381.1491C4528.5931,-1487.1238 4642.6559,-1604.0265 4726.3099,-1696.8057"/>
          <polygon fill="#058488" stroke="#058488" stroke-width="6.6783" points="4754.8365,-1728.8216 4712.2625,-1709.8034 4738.573,-1714.8365 4724.4291,-1698.9627 4726.5489,-1697.074 4728.6686,-1695.1853 4742.8125,-1711.0591 4740.8353,-1684.3446 4754.8365,-1728.8216 4754.8365,-1728.8216"/>
        </a>
      </g>
      <text text-anchor="middle" x="4118.365" y="-1234.8438" font-family="Helvetica,sans-Serif" font-size="100.00" fill="#000000">1</text>
    </g>
  </g>
</svg>
