<?xml version="1.0" encoding="utf-8"?>
<!-- Generator: Adobe Illustrator 24.1.0, SVG Export Plug-In . SVG Version: 6.00 Build 0)  -->
<svg version="1.1" id="Layer_1" xmlns="http://www.w3.org/2000/svg" xmlns:xlink="http://www.w3.org/1999/xlink" x="0px" y="0px"
	 viewBox="0 0 258 162.9" style="enable-background:new 0 0 258 162.9;" xml:space="preserve">
<style type="text/css">
	.st0{fill:#1F1D34;}
	.st1{fill:none;}
	.st2{fill:#6CC3C6;}
</style>
<g>
	<path class="st0" d="M63,59.5L63,59.5l-9.2-3.9l10.9-45.2h10.9l14.5,61.1H79.8l-2.6-12H63z M75.5,50.7l-5.3-25.4l-5.4,25.4H75.5z"
		/>
	<g>
		<path class="st0" d="M29.8,72.3c-10,0-16.9-7.3-16.9-17.6V27.3c0-10.4,6.9-17.7,16.9-17.7s17,7.3,17,17.7v3.2H36.6v-3.6
			c0-5.5-3.2-7.4-6.8-7.4c-3.5,0-6.8,1.8-6.8,7.4V55c0,5.5,3.2,7.4,6.8,7.4c3.4,0,6.8-1.8,6.8-7.4v-4.4h10.1v4.1
			C46.8,65,39.8,72.3,29.8,72.3z"/>
		<path class="st0" d="M128.4,10.4v44.3c0,10.7-7,17.6-16.9,17.6c-10,0-17-6.9-17-17.6V10.4h10.1v44.7c0,5.5,3.3,7.4,6.8,7.4
			s6.8-1.9,6.8-7.4V10.4H128.4z"/>
		<path class="st0" d="M135.5,25.3c0-9.5,6.5-15.8,16.5-15.8c9.6,0,16.5,6.6,16.5,17.1h-10c0-5.4-2.9-7.6-6.6-7.6s-6.2,2.2-6.2,5.8
			c0,10.8,23.3,14.6,23.3,30.8c0,10-6.1,16.7-16.7,16.7c-10.1,0-17.4-6.7-17.4-17.6h10c0,5.8,3.4,8,7.4,8c3.9,0,6.8-2.3,6.8-6.4
			C158.9,45.8,135.5,40.6,135.5,25.3z"/>
		<path class="st0" d="M184.4,59.5l-2.7,12h-10.3l14.7-61.1H197l14.5,61.1h-10.3l-2.6-12H184.4z M196.9,50.7l-5.3-25.4l-5.4,25.4
			H196.9z"/>
		<path class="st0" d="M216.8,71.5V10.4H227v51.3h16.5v9.8H216.8z"/>
	</g>
	<g>
		<path class="st0" d="M24.1,146.1H14V85h10l11,37.2L46,85h10v61.1H46v-33.6l-7.5,24.4h-6.8l-7.5-24.3v33.5H24.1z"/>
		<path class="st0" d="M74.7,134.1l-2.7,12H61.7L76.4,85h10.9l14.5,61.1H91.5l-2.6-12H74.7z M87.1,125.3l-5.3-25.4l-5.4,25.4H87.1z"
			/>
		<path class="st0" d="M107.1,85h16c10,0,17,6.6,17,18.5v9c0,12-7,18.3-17,18.3h-5.8V146h-10.2C107.1,146,107.1,85,107.1,85z
			 M117.3,121.1h4.7c4.2,0,8.1-1.8,8.1-8.7v-8.8c0-7.3-4.1-8.8-8.1-8.8h-4.7C117.3,94.8,117.3,121.1,117.3,121.1z"/>
	</g>
	<g>
		<line class="st1" x1="57.9" y1="57.2" x2="51.2" y2="84.2"/>
		<path class="st2" d="M61.9,61.3c2.2-2.2,2.2-5.8,0-8.1c-2.2-2.2-5.8-2.2-8.1,0c-2.1,2.1-2.2,5.5-0.3,7.8L49,79.3
			c-0.8,0.3-1.6,0.7-2.2,1.4c-2.2,2.2-2.2,5.8,0,8.1c2.2,2.2,5.8,2.2,8.1,0c2.1-2.1,2.2-5.4,0.4-7.6l4.6-18.5
			C60.7,62.3,61.4,61.9,61.9,61.3z"/>
	</g>
</g>
</svg>
